<?xml version="1.0" standalone="no"?>
<!DOCTYPE svg PUBLIC "-//W3C//DTD SVG 20010904//EN"
 "http://www.w3.org/TR/2001/REC-SVG-20010904/DTD/svg10.dtd">
<svg version="1.0" xmlns="http://www.w3.org/2000/svg"
 width="1600.000000pt" height="1003.000000pt" viewBox="0 0 1600.000000 1003.000000"
 preserveAspectRatio="xMidYMid meet">

<g transform="translate(0.000000,1003.000000) scale(0.100000,-0.100000)"
fill="#000000" stroke="none">
<path d="M6028 7653 l-3 -398 -105 -12 c-615 -68 -1336 -352 -1876 -741 -64
-45 -161 -119 -217 -163 l-102 -80 -80 83 c-44 46 -201 210 -349 366 l-269
282 -46 -42 c-36 -33 -308 -290 -645 -609 l-30 -28 74 -78 c41 -43 117 -123
170 -178 53 -55 185 -193 294 -308 l198 -207 -46 -63 c-315 -429 -560 -906
-729 -1422 -55 -169 -87 -284 -159 -587 l-9 -38 -597 -2 -597 -3 0 -490 0
-490 1321 -3 1321 -2 7 152 c27 587 199 1164 491 1643 484 795 1195 1295 2040
1432 87 14 167 18 385 18 240 -1 292 -4 409 -24 153 -26 339 -75 486 -128 444
-158 860 -445 1174 -808 292 -338 511 -715 660 -1135 110 -312 180 -673 198
-1028 l6 -122 1261 2 1261 3 0 490 0 490 -552 3 c-619 2 -563 -5 -577 77 -29
166 -117 472 -201 705 -141 387 -301 706 -534 1060 l-80 123 72 77 c40 43 180
191 312 330 l240 253 -66 61 c-37 34 -196 185 -354 336 -158 151 -292 276
-298 277 -7 1 -136 -129 -286 -288 -151 -159 -280 -289 -286 -289 -6 0 -22 12
-36 26 -34 37 -167 147 -284 235 -456 343 -853 543 -1425 718 -65 19 -272 65
-450 98 l-95 18 -3 403 -2 402 -495 0 -495 0 -2 -397z"/>
<path d="M13270 7197 c-9 -20 -98 -358 -124 -469 -6 -25 -14 -50 -18 -54 -4
-4 -83 -8 -175 -10 -187 -2 -325 -24 -478 -73 -49 -16 -93 -27 -96 -25 -3 2
-71 111 -150 244 -79 132 -146 240 -149 240 -12 0 -474 -286 -477 -295 -2 -6
62 -118 142 -249 l145 -239 -83 -86 c-121 -126 -248 -313 -312 -458 -14 -35
-23 -43 -44 -43 -14 0 -136 25 -271 55 -135 30 -252 55 -261 55 -12 0 -26 -53
-68 -242 -29 -134 -57 -256 -62 -272 -5 -16 -8 -31 -6 -33 2 -2 127 -30 277
-63 150 -33 276 -62 280 -65 4 -2 10 -71 13 -152 5 -110 14 -179 35 -271 21
-91 26 -126 18 -137 -6 -8 -106 -70 -222 -138 -260 -154 -254 -150 -254 -160
0 -7 180 -319 262 -455 l20 -32 26 18 c15 10 121 74 235 141 l208 123 97 -100
c160 -164 295 -264 480 -356 50 -26 92 -49 92 -51 0 -4 -37 -168 -83 -370 -14
-60 -29 -118 -32 -127 -4 -10 -5 -18 -2 -18 5 0 407 -92 500 -114 56 -13 57
-13 62 8 3 11 25 109 50 218 24 108 49 216 55 241 l12 44 126 7 c222 12 457
70 639 158 45 22 87 37 92 33 6 -3 88 -101 182 -216 117 -144 174 -207 182
-201 80 61 427 344 427 348 0 3 -76 98 -168 212 -92 114 -171 213 -176 219 -4
8 10 35 37 70 67 88 134 195 174 279 33 70 38 75 62 71 14 -2 118 -26 231 -52
113 -26 224 -52 248 -57 24 -5 46 -8 49 -5 3 3 22 81 44 174 21 92 48 202 59
244 32 122 32 124 -47 142 -38 9 -155 37 -261 62 -106 25 -199 48 -206 51 -10
4 -15 44 -19 152 -7 157 -30 294 -73 430 -15 47 -23 87 -18 91 5 4 113 72 239
151 127 78 232 144 234 146 7 6 -290 474 -300 474 -6 0 -36 -17 -67 -38 -84
-57 -396 -242 -407 -242 -6 0 -41 29 -78 65 -91 87 -211 179 -327 250 -52 32
-99 62 -103 66 -5 3 24 131 64 283 39 152 69 280 65 283 -3 4 -126 37 -272 74
-265 67 -265 67 -274 46z m-28 -1090 c373 -97 665 -383 773 -755 71 -246 50
-517 -59 -748 -58 -123 -114 -203 -209 -301 -596 -614 -1626 -326 -1827 510
-57 235 -28 491 80 713 154 317 438 533 787 599 119 22 331 14 455 -18z"/>
<path d="M6605 3774 c-66 -11 -183 -48 -240 -76 -82 -42 -167 -131 -194 -203
-43 -115 -20 -217 68 -306 94 -93 170 -122 518 -194 238 -49 312 -76 343 -127
62 -102 -23 -205 -194 -237 -229 -42 -435 36 -503 191 l-17 38 -143 0 c-79 0
-143 -4 -143 -9 0 -32 46 -147 79 -198 111 -172 366 -267 669 -249 210 12 349
64 456 169 84 83 110 148 104 262 -12 218 -175 325 -608 399 -251 43 -314 67
-343 129 -39 82 43 164 189 187 69 12 188 7 254 -10 63 -17 128 -66 157 -120
l28 -50 142 0 143 0 -6 33 c-11 60 -62 152 -116 205 -59 59 -175 122 -273 148
-59 16 -307 27 -370 18z"/>
<path d="M5618 3752 l-138 -3 0 -223 c0 -123 -3 -238 -6 -255 l-7 -31 -341 2
-341 3 -3 253 -2 252 -150 0 -150 0 0 -665 0 -666 143 3 142 3 5 285 c3 157 9
291 13 298 12 17 667 18 685 0 9 -9 12 -89 12 -300 l0 -289 143 3 142 3 3 659
c1 363 -1 662 -5 665 -5 3 -70 5 -145 3z"/>
<path d="M7740 3090 l0 -670 145 0 145 0 0 239 c0 132 3 246 6 255 5 14 36 16
238 16 127 0 260 5 296 11 271 43 404 162 417 373 14 219 -87 347 -322 411
-63 18 -406 33 -752 34 l-173 1 0 -670z m805 426 c98 -35 145 -89 145 -166 0
-55 -20 -99 -63 -137 -65 -57 -106 -64 -361 -61 l-227 3 -6 177 c-3 98 -3 185
1 194 5 14 32 15 234 12 187 -3 236 -7 277 -22z"/>
</g>
</svg>
