<?xml version="1.0" standalone="no"?>
<!DOCTYPE svg PUBLIC "-//W3C//DTD SVG 20010904//EN"
 "http://www.w3.org/TR/2001/REC-SVG-20010904/DTD/svg10.dtd">
<svg version="1.0" xmlns="http://www.w3.org/2000/svg"
 width="11991.000000pt" height="14988.000000pt" viewBox="0 0 11991.000000 14988.000000"
 preserveAspectRatio="xMidYMid meet">

<g transform="translate(0.000000,14988.000000) scale(0.100000,-0.100000)"
fill="#000000" stroke="none">
<path d="M46060 105688 l0 -2701 -31 -48 c-46 -72 -65 -81 -200 -89 -65 -5
-123 -11 -130 -16 -7 -4 -55 -7 -107 -6 -63 2 -104 -2 -125 -12 -18 -8 -140
-26 -272 -41 -307 -34 -789 -102 -1115 -159 -140 -24 -277 -47 -305 -50 -27
-4 -64 -12 -81 -17 -18 -5 -101 -23 -185 -39 -431 -81 -1174 -254 -1678 -390
-41 -11 -97 -20 -123 -20 -46 0 -86 -13 -98 -31 -7 -11 -220 -70 -230 -64 -4
3 -39 -7 -76 -21 -38 -15 -100 -35 -139 -46 -38 -12 -124 -38 -190 -59 -66
-21 -187 -59 -270 -84 -356 -110 -852 -270 -1040 -336 -80 -28 -644 -221 -770
-264 -55 -18 -134 -47 -175 -64 -41 -17 -187 -76 -325 -130 -429 -171 -797
-330 -1320 -571 -94 -43 -183 -81 -198 -84 -15 -2 -35 -12 -44 -22 -20 -19
-111 -64 -131 -64 -8 0 -26 -8 -40 -19 -15 -10 -213 -111 -439 -225 -457 -228
-624 -314 -728 -375 -38 -23 -73 -41 -77 -41 -4 0 -46 -22 -94 -49 -47 -27
-91 -48 -97 -45 -7 2 -28 -9 -47 -26 -19 -16 -39 -30 -45 -30 -5 0 -47 -23
-93 -50 -46 -28 -89 -50 -96 -50 -7 0 -30 -13 -49 -29 -20 -15 -119 -70 -219
-121 -571 -290 -1235 -704 -2011 -1252 -324 -230 -421 -298 -466 -328 -21 -14
-83 -60 -137 -101 -54 -42 -118 -86 -142 -98 -24 -12 -46 -29 -49 -37 -3 -8
-25 -26 -49 -40 -24 -14 -44 -30 -44 -35 0 -5 -6 -9 -14 -9 -17 0 -176 -117
-176 -130 0 -6 -6 -10 -13 -10 -8 0 -49 -31 -93 -69 -43 -37 -97 -80 -119 -95
-67 -44 -109 -76 -136 -102 -14 -13 -29 -24 -35 -24 -5 0 -20 -10 -34 -23 -14
-12 -41 -33 -60 -47 -43 -30 -106 -81 -168 -137 -26 -24 -65 -51 -87 -62 -22
-10 -51 -31 -65 -46 -14 -15 -42 -35 -62 -46 -20 -10 -41 -25 -45 -33 -4 -8
-24 -27 -45 -43 -20 -15 -60 -47 -90 -71 -29 -24 -82 -67 -118 -95 -35 -29
-99 -87 -143 -129 -43 -43 -82 -78 -85 -78 -4 0 -23 -13 -42 -28 -51 -42 -74
-52 -119 -52 -64 0 -117 26 -155 79 -19 25 -49 60 -68 77 -18 17 -42 42 -53
55 -12 13 -31 33 -42 44 -12 11 -46 46 -75 78 -29 32 -91 99 -138 147 -47 49
-97 101 -112 117 -15 15 -34 35 -43 43 -9 8 -49 49 -90 90 -72 74 -113 115
-148 148 -10 9 -30 30 -45 45 -15 16 -61 63 -102 105 -41 43 -118 124 -170
182 -111 122 -246 261 -419 432 -68 68 -151 155 -184 193 -131 153 -164 191
-225 253 -35 36 -73 71 -85 77 -12 6 -28 23 -35 38 -7 15 -27 37 -44 50 -16
12 -37 35 -45 50 -8 16 -132 147 -276 291 -275 275 -380 384 -537 556 -52 57
-121 130 -152 162 -32 32 -58 62 -58 68 0 5 -5 10 -11 10 -10 0 -182 174 -319
323 -36 39 -126 135 -200 212 -200 209 -258 274 -281 314 -11 20 -43 54 -70
76 -28 22 -63 53 -77 68 -15 16 -51 52 -80 80 -29 29 -146 151 -260 272 -284
302 -277 295 -302 295 -15 0 -69 -46 -168 -142 -81 -79 -305 -291 -497 -471
-376 -352 -413 -387 -666 -632 -91 -88 -200 -191 -243 -230 -125 -112 -168
-153 -407 -388 -250 -246 -662 -637 -686 -651 -8 -4 -50 -43 -93 -85 -43 -42
-103 -98 -134 -126 -47 -43 -99 -93 -201 -199 -17 -17 -189 -179 -347 -326
-189 -176 -258 -242 -442 -424 -302 -298 -620 -596 -674 -633 -26 -17 -59 -45
-74 -62 -15 -16 -41 -37 -58 -46 -16 -8 -30 -20 -30 -26 0 -5 -47 -56 -105
-113 -58 -56 -105 -107 -105 -111 0 -5 -10 -19 -21 -31 l-21 -23 83 -88 c150
-160 251 -266 499 -523 135 -140 279 -291 319 -335 41 -44 94 -100 120 -125
87 -86 276 -292 307 -335 17 -24 75 -84 130 -133 54 -49 126 -119 159 -155 33
-36 112 -119 175 -184 114 -117 231 -243 313 -336 23 -26 79 -84 125 -130 129
-127 357 -361 473 -482 57 -61 141 -149 186 -197 45 -47 93 -103 106 -124 25
-39 313 -339 326 -339 3 0 76 -72 161 -160 256 -265 320 -334 320 -345 0 -6
103 -113 228 -238 207 -205 295 -296 615 -630 53 -56 97 -106 97 -111 0 -15
215 -241 249 -262 37 -22 70 -88 71 -137 0 -47 -23 -90 -84 -159 -28 -32 -60
-71 -70 -88 -11 -16 -71 -100 -135 -185 -134 -181 -315 -430 -526 -726 -82
-116 -166 -233 -185 -259 -19 -26 -55 -79 -80 -117 -25 -38 -117 -178 -204
-311 -170 -257 -391 -600 -521 -807 -43 -69 -104 -165 -135 -215 -126 -199
-532 -898 -735 -1265 -32 -58 -72 -130 -90 -160 -18 -30 -43 -77 -57 -105 -13
-27 -48 -93 -77 -145 -115 -206 -497 -955 -641 -1255 -45 -93 -105 -219 -135
-280 -29 -60 -63 -132 -75 -160 -11 -27 -29 -59 -39 -70 -10 -11 -26 -45 -35
-76 -8 -30 -27 -73 -42 -94 -14 -21 -38 -74 -54 -118 -16 -44 -35 -84 -44 -89
-8 -5 -24 -37 -35 -72 -11 -35 -35 -95 -54 -132 -19 -38 -40 -87 -47 -109 -7
-22 -67 -164 -132 -315 -66 -151 -134 -313 -153 -360 -18 -47 -58 -143 -90
-215 -31 -71 -63 -148 -70 -171 -19 -58 -56 -146 -70 -164 -6 -8 -20 -44 -31
-80 -10 -35 -31 -79 -47 -97 -31 -35 -47 -80 -47 -130 0 -40 -17 -79 -51 -120
-19 -22 -30 -52 -39 -103 -7 -40 -25 -97 -42 -129 -16 -31 -31 -71 -34 -89 -2
-19 -25 -86 -50 -150 -25 -65 -59 -155 -74 -202 -15 -47 -77 -225 -138 -396
-61 -171 -176 -513 -256 -760 -81 -247 -160 -489 -177 -539 -16 -49 -43 -139
-60 -200 -17 -60 -41 -131 -55 -158 -13 -27 -24 -58 -24 -70 0 -24 -13 -72
-145 -542 -235 -840 -425 -1634 -591 -2469 -36 -183 -38 -189 -68 -207 -30
-19 -131 -19 -4126 -16 -2252 2 -4106 6 -4120 9 -14 3 -28 0 -32 -6 -8 -12
-11 -6826 -3 -6848 4 -11 643 -13 3778 -10 2685 2 3794 0 3849 -8 55 -8 1605
-11 5395 -10 l5318 0 25 25 25 25 7 528 c6 516 22 881 52 1232 9 96 23 274 32
395 8 121 24 293 35 381 25 220 36 313 54 489 19 177 117 856 146 1000 10 55
26 147 34 205 20 147 100 558 141 726 19 78 39 176 44 218 12 94 35 188 60
241 10 22 23 81 29 130 14 112 33 186 59 222 26 38 30 53 37 160 6 104 10 118
42 152 24 27 43 98 43 164 0 56 25 152 49 186 25 36 38 81 50 180 8 58 19 98
37 128 15 27 35 89 49 158 13 62 32 130 43 152 11 21 30 85 42 143 12 58 35
137 50 175 15 39 35 103 44 143 9 40 32 110 51 155 18 46 41 117 50 158 9 41
30 100 46 131 17 32 37 90 45 130 8 40 26 91 38 113 22 37 36 79 66 195 7 24
23 60 36 79 13 19 31 67 40 107 9 44 29 93 49 124 19 29 36 66 40 81 3 16 8
43 11 59 3 17 21 48 39 70 23 28 37 58 45 98 12 62 29 103 60 142 10 14 26 58
34 97 9 45 25 86 40 106 14 18 33 64 41 102 9 38 31 96 50 130 18 33 39 80 45
105 6 25 27 72 45 105 18 33 38 80 45 105 6 25 26 72 44 105 18 33 40 83 50
110 10 28 33 77 51 110 18 33 38 78 45 100 7 22 30 72 50 110 21 39 43 88 50
110 7 22 25 56 40 75 16 20 36 60 46 89 9 30 30 69 46 87 16 17 37 58 48 90
13 36 33 69 54 89 26 24 36 42 41 79 5 30 19 63 40 90 18 24 40 65 49 92 9 27
30 69 46 93 17 24 35 62 41 84 6 22 26 62 45 89 19 28 34 58 34 67 0 16 54
111 70 121 4 3 16 26 28 52 54 124 559 973 617 1038 12 14 28 40 35 59 8 19
28 54 46 77 18 23 40 57 50 76 9 18 29 51 44 73 15 22 58 88 96 148 417 648
1163 1658 1594 2157 36 41 81 95 100 120 121 156 472 551 694 780 72 75 154
163 181 195 122 145 753 765 1111 1090 48 44 120 109 159 145 74 68 196 174
350 304 50 41 119 92 154 113 35 20 73 52 85 70 11 18 30 36 41 39 11 4 41 28
67 53 71 70 92 88 233 201 214 171 414 320 430 320 8 0 22 11 31 25 9 14 38
38 63 52 25 14 51 31 56 37 25 28 96 77 117 81 12 3 37 20 56 40 19 19 41 35
49 35 8 0 28 14 45 30 17 17 47 40 68 50 21 11 45 28 52 38 7 10 33 32 58 47
25 16 54 37 65 46 11 10 47 35 81 56 33 21 148 96 255 167 367 245 618 396
655 396 9 0 29 13 44 30 15 16 49 39 75 50 26 11 63 34 83 50 24 20 48 30 69
30 20 0 40 8 51 19 9 10 27 30 39 43 12 13 41 30 65 38 24 7 57 25 73 40 17
15 66 46 110 70 44 24 125 68 180 98 185 100 819 419 880 441 33 13 67 27 75
32 56 34 111 58 148 64 23 4 56 18 71 31 38 32 109 64 144 64 17 0 37 10 51
24 23 26 113 66 145 66 10 0 30 9 44 21 51 39 741 315 1087 434 52 18 142 49
200 69 57 20 112 33 122 30 10 -3 53 12 100 35 55 27 106 44 152 50 39 6 81
18 95 29 40 29 149 62 206 62 40 0 62 7 101 31 65 42 94 50 184 53 73 3 147
27 136 45 -8 13 142 52 209 54 42 2 79 12 125 33 74 35 132 51 232 64 39 5 74
13 77 18 10 16 197 60 286 68 44 3 99 14 121 24 66 28 219 61 328 70 59 4 124
17 156 29 65 24 256 57 390 66 52 4 129 15 170 26 83 20 150 30 415 59 99 10
196 24 215 30 19 5 64 10 100 10 36 0 144 9 240 20 227 26 622 48 980 54 157
3 386 12 510 21 243 16 645 20 636 6 -7 -11 200 -22 499 -27 488 -6 1335 -95
2060 -215 1340 -222 2712 -608 4000 -1127 175 -71 278 -115 605 -257 829 -362
1810 -887 2604 -1394 279 -178 466 -303 466 -312 0 -5 22 -20 48 -33 27 -13
54 -32 61 -40 8 -9 35 -28 62 -43 27 -14 56 -37 65 -50 8 -14 40 -36 70 -49
30 -13 54 -28 54 -34 0 -18 39 -50 60 -50 12 0 51 -22 88 -49 37 -28 91 -67
121 -88 29 -21 72 -54 95 -73 22 -20 52 -41 66 -47 14 -6 69 -48 124 -94 54
-46 113 -92 131 -102 17 -11 40 -32 49 -48 9 -16 41 -45 69 -64 71 -48 124
-88 177 -135 97 -86 151 -130 172 -141 13 -6 34 -22 48 -35 41 -37 144 -125
216 -184 37 -30 108 -93 159 -140 163 -152 285 -263 304 -276 10 -7 33 -28 52
-46 19 -18 99 -94 179 -168 80 -74 190 -180 245 -235 55 -55 170 -166 255
-247 85 -81 198 -195 250 -254 52 -59 135 -150 183 -203 309 -331 831 -952
1188 -1411 1195 -1537 2212 -3192 2945 -4793 35 -78 74 -159 85 -181 56 -104
408 -921 434 -1006 4 -14 26 -65 47 -115 63 -143 148 -373 148 -401 0 -29 25
-92 46 -115 8 -9 24 -61 35 -114 18 -90 49 -165 68 -165 5 0 11 -31 15 -69 7
-83 19 -117 52 -152 27 -28 44 -77 44 -124 0 -51 20 -105 50 -137 30 -31 34
-46 45 -153 5 -44 16 -76 41 -117 26 -44 37 -74 44 -134 12 -95 16 -109 47
-155 16 -24 32 -78 48 -158 15 -73 34 -138 49 -164 13 -23 29 -73 35 -112 6
-38 28 -122 49 -185 22 -63 42 -144 46 -179 4 -35 25 -121 46 -190 21 -69 41
-146 44 -171 11 -71 36 -180 57 -241 22 -64 42 -162 59 -289 6 -47 20 -105 31
-128 21 -50 44 -177 54 -302 5 -60 15 -104 35 -150 31 -70 36 -98 50 -267 7
-89 14 -122 35 -161 33 -63 44 -131 52 -317 6 -135 9 -156 34 -212 36 -81 48
-148 58 -335 7 -131 12 -162 34 -217 37 -90 45 -146 56 -401 9 -192 14 -237
35 -306 30 -99 53 -322 60 -589 6 -181 28 -414 42 -437 19 -30 35 -396 40
-868 5 -544 8 -628 27 -654 11 -14 481 -16 5227 -16 3602 -1 5232 2 5269 10
37 7 1148 10 3545 10 3303 0 3492 1 3504 17 7 10 10 23 8 30 -3 7 -1 13 4 13
7 0 10 1213 10 3399 l0 3399 -32 8 c-18 4 -1744 5 -3835 3 l-3801 -4 -39 31
c-73 59 -101 139 -121 352 -6 59 -15 99 -25 110 -17 19 -57 210 -57 276 0 24
-11 79 -25 121 -14 43 -37 139 -51 214 -14 75 -31 156 -38 181 -8 25 -26 99
-41 165 -122 538 -402 1587 -546 2045 -21 69 -42 141 -45 160 -4 19 -20 67
-35 105 -15 39 -34 107 -43 151 -8 45 -24 97 -35 115 -25 44 -61 162 -61 202
0 16 -12 51 -26 75 -15 25 -42 93 -60 151 -34 112 -92 278 -272 786 -28 77
-91 253 -142 390 -51 138 -109 297 -130 355 -21 58 -57 151 -79 207 -23 57
-41 110 -41 119 0 8 -11 34 -24 57 -14 23 -32 69 -41 102 -10 33 -30 83 -46
111 -16 28 -36 80 -45 115 -9 35 -29 83 -44 107 -16 24 -38 73 -50 109 -12 37
-32 88 -46 114 -13 26 -37 81 -53 121 -16 40 -60 141 -96 223 -37 83 -75 173
-85 200 -10 28 -31 79 -48 115 -16 36 -53 119 -82 185 -223 510 -484 1052
-790 1635 -222 422 -209 397 -269 510 -28 52 -69 131 -91 175 -22 44 -50 92
-61 106 -11 14 -23 41 -26 60 -6 43 -18 67 -53 104 -16 17 -34 50 -40 75 -7
28 -26 61 -50 85 -21 22 -43 57 -49 77 -7 20 -25 49 -40 65 -30 31 -71 97 -71
116 0 7 -12 26 -26 42 -14 17 -35 48 -46 70 -12 22 -34 59 -50 82 -15 23 -37
62 -47 86 -11 25 -35 65 -55 91 -19 26 -40 64 -46 84 -5 20 -22 49 -37 63 -16
14 -37 50 -47 79 -10 29 -31 67 -46 84 -14 17 -34 53 -44 80 -10 26 -31 63
-47 80 -15 18 -37 57 -49 88 -11 30 -30 64 -41 74 -12 11 -32 40 -44 65 -13
25 -31 52 -40 59 -9 8 -30 42 -46 76 -16 34 -40 69 -53 78 -13 8 -30 32 -36
53 -7 21 -29 56 -50 78 -21 22 -47 59 -59 82 -11 23 -30 48 -41 56 -11 7 -29
35 -40 61 -12 26 -36 62 -53 81 -18 20 -33 40 -33 45 -1 6 -2 13 -3 18 0 4
-20 30 -42 57 -23 28 -52 73 -65 101 -12 28 -34 58 -49 68 -15 10 -24 20 -22
23 11 10 -35 99 -64 125 -16 15 -37 45 -45 65 -9 21 -27 52 -40 69 -13 18 -31
50 -40 73 -9 23 -29 52 -44 65 -16 13 -46 49 -67 81 -21 31 -50 76 -66 98 -15
23 -44 58 -64 79 -29 30 -37 46 -41 87 -8 89 2 111 91 206 45 49 97 102 116
119 19 17 41 40 50 51 9 11 30 33 46 50 17 16 77 80 135 140 57 61 213 223
345 360 133 138 403 421 600 630 197 209 440 466 541 570 100 105 212 224 250
265 153 169 388 413 523 545 79 77 204 208 277 290 192 216 224 250 526 557
288 292 396 404 518 539 41 46 103 112 137 146 34 35 71 84 83 108 19 40 20
46 6 77 -7 18 -70 86 -138 151 -67 64 -130 124 -138 133 -87 89 -157 153 -168
154 -7 0 -17 11 -21 24 -5 13 -23 34 -41 47 -107 83 -603 554 -651 619 -39 52
-194 202 -228 220 -28 14 -115 96 -706 664 -137 133 -299 288 -360 346 -205
196 -370 354 -555 535 -102 99 -266 256 -365 350 -194 182 -758 723 -1158
1110 -136 132 -279 269 -317 303 l-70 64 -43 -39 c-24 -21 -171 -173 -327
-338 -156 -165 -345 -362 -420 -437 -74 -75 -139 -142 -145 -147 -5 -6 -26
-26 -45 -45 -19 -19 -57 -60 -85 -91 -27 -31 -85 -92 -127 -136 -43 -44 -81
-86 -85 -94 -5 -8 -71 -78 -148 -157 -77 -78 -164 -170 -194 -203 -51 -57
-421 -444 -541 -566 -30 -31 -134 -138 -230 -239 -96 -101 -258 -268 -360
-371 -197 -200 -282 -292 -290 -313 -3 -7 -34 -39 -69 -72 -86 -80 -89 -82
-146 -149 -27 -32 -73 -81 -101 -109 -29 -28 -73 -76 -99 -106 -38 -44 -164
-177 -345 -362 -69 -72 -124 -118 -139 -118 -38 0 -139 61 -176 105 -20 25
-42 45 -50 45 -7 0 -23 12 -35 28 -12 15 -46 47 -75 72 -30 25 -123 108 -207
184 -265 241 -292 265 -329 293 -49 38 -455 370 -551 452 -83 71 -157 129
-222 175 -23 15 -53 41 -67 56 -14 15 -40 35 -57 44 -18 9 -32 21 -32 26 0 21
-68 80 -93 80 -16 0 -31 8 -37 20 -6 11 -25 27 -43 36 -42 22 -195 135 -226
168 -14 14 -31 26 -38 26 -8 0 -30 16 -50 35 -20 19 -40 35 -44 35 -5 0 -33
21 -62 48 -29 26 -88 74 -132 107 -43 33 -97 76 -121 96 -23 20 -55 40 -70 43
-16 4 -52 29 -80 54 -62 57 -121 99 -180 130 -24 12 -48 31 -54 42 -6 11 -27
29 -48 39 -20 11 -63 40 -96 65 -32 25 -65 46 -73 46 -7 0 -33 18 -55 40 -23
22 -49 40 -58 40 -13 0 -75 42 -200 135 -19 15 -53 38 -76 53 -42 27 -162 109
-265 181 -31 21 -66 48 -78 60 -11 11 -27 21 -33 21 -7 1 -35 16 -63 36 -82
57 -335 228 -369 248 -17 11 -103 65 -191 121 -400 255 -857 530 -1205 725
-36 20 -126 70 -200 112 -909 509 -2112 1075 -3190 1502 -80 32 -181 72 -225
91 -44 18 -105 40 -135 50 -30 10 -68 25 -85 33 -16 9 -77 32 -135 52 -58 21
-168 60 -245 87 -654 234 -1622 544 -2035 653 -47 13 -101 33 -121 46 -26 18
-54 25 -101 28 -77 5 -190 37 -233 66 -21 14 -47 20 -85 20 -32 0 -115 16
-201 39 -80 22 -204 53 -275 70 -71 16 -149 37 -173 45 -24 9 -55 16 -69 16
-13 0 -111 20 -216 44 -544 127 -1255 260 -1848 346 -160 24 -277 45 -291 54
-14 9 -56 17 -107 20 -47 3 -96 9 -110 14 -34 13 -75 60 -89 101 -8 25 -11
765 -11 2773 0 1507 -3 2744 -6 2749 -3 5 -1417 9 -3435 9 l-3429 0 0 -2702z"/>
<path d="M96466 102551 c-23 -24 -37 -63 -76 -213 -26 -100 -72 -277 -103
-393 -30 -115 -82 -316 -116 -445 -34 -129 -88 -334 -121 -455 -87 -325 -197
-740 -240 -905 -21 -80 -56 -215 -80 -300 -40 -149 -97 -365 -181 -685 -21
-82 -39 -164 -39 -182 0 -160 -99 -255 -250 -240 -371 38 -457 41 -925 42
-485 0 -618 -7 -1075 -51 -509 -49 -1115 -148 -1582 -260 -103 -25 -193 -44
-200 -42 -7 1 -22 -3 -33 -9 -11 -6 -74 -25 -140 -43 -211 -57 -514 -150 -720
-222 -178 -62 -209 -70 -280 -71 -59 -2 -88 3 -112 16 -39 21 -91 94 -100 139
-3 18 -117 218 -253 443 -483 801 -788 1308 -1168 1940 -212 352 -399 665
-415 695 -49 91 -105 138 -147 125 -11 -3 -133 -76 -272 -162 -139 -86 -273
-168 -298 -183 -25 -15 -83 -51 -130 -80 -202 -125 -920 -566 -975 -598 -33
-19 -94 -57 -135 -83 -41 -26 -98 -60 -126 -76 -29 -15 -91 -54 -138 -85 -48
-32 -103 -66 -124 -77 -20 -11 -68 -40 -107 -65 -38 -25 -75 -46 -82 -46 -7 0
-13 -5 -13 -12 0 -6 -3 -8 -6 -5 -4 4 -21 -5 -37 -19 -17 -14 -59 -39 -94 -55
-35 -16 -63 -33 -63 -38 0 -6 -21 -22 -47 -37 -27 -15 -64 -38 -85 -51 -20
-14 -43 -26 -52 -27 -9 -1 -27 -13 -41 -26 -14 -13 -25 -20 -25 -15 0 5 -7 0
-16 -11 -8 -10 -13 -12 -9 -4 4 8 -2 6 -12 -6 -28 -32 -220 -145 -254 -149
-33 -4 -82 -39 -146 -102 l-42 -43 546 -892 c300 -491 589 -963 641 -1048 52
-85 139 -227 192 -315 186 -307 347 -571 451 -740 198 -320 211 -343 216 -383
7 -50 -8 -76 -62 -110 -124 -77 -565 -502 -796 -767 -352 -404 -755 -951
-1077 -1460 -17 -27 -35 -48 -39 -46 -4 1 -15 -17 -24 -40 -9 -24 -30 -59 -48
-76 -17 -18 -38 -50 -47 -70 -9 -21 -23 -53 -30 -70 -8 -18 -19 -33 -24 -33
-6 0 -20 -20 -31 -45 -11 -25 -33 -61 -50 -79 -28 -32 -65 -106 -53 -106 3 0
-5 -18 -17 -40 -13 -22 -26 -40 -31 -40 -10 0 -48 -74 -48 -94 0 -8 -28 -63
-62 -123 -59 -103 -360 -699 -391 -774 -34 -84 -122 -148 -200 -149 -40 0
-251 42 -552 110 -99 22 -263 59 -365 81 -102 23 -241 55 -310 71 -69 16 -197
45 -285 63 -88 18 -313 67 -500 109 -187 42 -441 99 -565 126 -124 28 -367 82
-540 121 -423 95 -691 151 -695 147 -4 -3 -172 -753 -215 -958 -16 -74 -40
-187 -55 -250 -14 -63 -41 -187 -60 -275 -19 -88 -54 -248 -79 -355 -25 -107
-54 -240 -66 -295 -12 -55 -35 -161 -52 -235 -16 -74 -43 -198 -59 -275 -16
-77 -38 -174 -49 -215 -11 -41 -33 -142 -50 -225 -16 -82 -37 -175 -46 -205
-8 -30 -26 -113 -40 -185 -13 -71 -35 -162 -49 -202 -14 -39 -25 -92 -25 -116
0 -51 -4 -48 95 -67 33 -7 191 -41 350 -77 160 -35 353 -78 430 -94 207 -43
278 -61 300 -75 11 -7 40 -13 65 -13 25 0 115 -16 200 -36 85 -20 209 -46 275
-59 66 -14 149 -31 185 -40 36 -9 151 -34 255 -57 105 -22 303 -65 440 -95
138 -31 342 -75 455 -99 409 -87 666 -145 734 -166 119 -36 156 -98 136 -226
-29 -179 -29 -630 0 -956 14 -167 45 -422 81 -666 16 -112 29 -233 29 -270 0
-46 6 -78 19 -105 20 -38 66 -288 74 -399 3 -31 9 -63 15 -70 15 -18 62 -239
73 -340 5 -48 16 -101 24 -118 9 -16 27 -80 41 -142 14 -61 43 -183 65 -269
46 -186 51 -284 18 -358 -20 -46 -75 -110 -93 -110 -5 0 -19 -8 -30 -19 -12
-10 -64 -44 -116 -76 -139 -84 -355 -212 -430 -255 -36 -21 -162 -96 -280
-168 -118 -71 -220 -128 -226 -125 -5 2 -23 -8 -39 -23 -39 -36 -124 -86 -152
-89 -27 -3 -55 -24 -47 -36 3 -5 -1 -10 -8 -10 -7 -1 -17 -2 -23 -4 -5 -1 -20
-3 -33 -3 -13 -1 -45 -23 -72 -49 -34 -32 -57 -47 -81 -49 -24 -3 -43 -14 -64
-39 -16 -19 -59 -49 -95 -66 -35 -18 -71 -40 -80 -50 -16 -19 -222 -139 -239
-139 -5 0 -11 -4 -13 -8 -6 -15 -69 -54 -92 -56 -13 -2 -44 -18 -70 -37 -26
-19 -61 -44 -78 -57 -17 -12 -33 -20 -36 -17 -6 6 -88 -41 -125 -72 -16 -13
-33 -23 -39 -23 -6 0 -27 -12 -47 -27 -19 -15 -41 -28 -48 -29 -23 -4 -122
-56 -135 -71 -7 -9 -49 -33 -92 -55 -44 -21 -90 -47 -101 -57 -11 -10 -32 -21
-47 -25 -14 -3 -40 -17 -56 -31 -17 -14 -55 -36 -85 -49 -30 -14 -63 -37 -74
-51 -11 -16 -40 -34 -69 -44 -44 -14 -49 -19 -52 -48 -4 -36 20 -88 53 -119
12 -11 30 -45 40 -75 9 -30 30 -67 46 -82 31 -30 75 -107 62 -107 -5 0 1 -7
11 -15 11 -8 16 -15 11 -15 -5 0 -1 -6 8 -12 9 -7 34 -44 55 -83 47 -85 177
-308 339 -585 66 -113 126 -218 135 -235 8 -16 29 -53 47 -80 17 -28 33 -61
36 -74 2 -13 14 -33 25 -43 11 -10 32 -42 46 -71 15 -29 32 -59 39 -67 7 -8
53 -85 102 -170 50 -85 163 -281 252 -435 89 -154 186 -320 216 -370 52 -89
82 -140 310 -535 66 -113 121 -207 123 -210 5 -6 13 -2 547 315 259 153 506
299 550 325 44 26 143 84 220 130 77 46 176 104 220 130 158 92 1293 765 1459
864 234 140 245 146 280 146 38 0 89 -30 125 -73 108 -131 647 -699 799 -842
30 -27 71 -74 93 -103 22 -29 44 -50 49 -47 5 3 24 -13 42 -36 18 -22 43 -46
55 -52 12 -7 97 -80 190 -163 92 -83 216 -192 274 -242 59 -50 116 -104 128
-121 12 -16 32 -33 44 -36 12 -4 36 -20 52 -36 106 -101 151 -139 162 -135 6
3 41 -24 77 -60 36 -35 74 -64 85 -64 10 0 30 -13 44 -29 13 -16 37 -36 53
-44 16 -8 38 -24 48 -36 11 -12 23 -21 28 -21 5 0 91 -58 191 -128 631 -445
1197 -771 1762 -1014 77 -33 176 -73 220 -89 83 -29 103 -47 124 -108 22 -67
12 -140 -69 -485 -43 -187 -109 -471 -145 -631 -97 -426 -227 -991 -301 -1310
-36 -154 -74 -320 -85 -370 -11 -49 -37 -164 -59 -255 -67 -283 -120 -519
-120 -533 0 -13 28 -21 515 -133 105 -24 249 -58 320 -75 72 -17 144 -33 160
-36 17 -3 86 -18 155 -34 69 -17 177 -41 240 -55 63 -14 261 -59 440 -99 179
-40 359 -81 400 -90 41 -9 172 -38 290 -65 118 -28 325 -75 460 -105 135 -30
313 -71 395 -90 338 -78 469 -105 476 -98 8 8 94 365 144 595 13 62 52 230 85
373 33 143 69 301 80 350 10 50 37 167 59 260 22 94 58 251 81 350 56 250 136
597 171 740 15 66 40 174 54 240 14 66 37 161 50 210 13 50 33 140 45 200 32
174 77 290 123 319 18 12 95 16 422 22 220 4 444 6 499 5 66 -1 112 3 140 13
22 8 95 20 161 26 66 6 206 19 310 30 105 11 242 21 306 23 80 3 125 9 147 21
31 16 318 65 397 68 22 1 42 5 45 9 6 9 370 79 410 79 15 0 47 7 71 15 23 9
102 29 173 46 971 223 1983 605 2603 981 67 41 92 51 142 55 52 5 68 2 116
-21 32 -16 68 -44 88 -69 94 -119 240 -299 626 -772 233 -286 451 -554 485
-595 33 -41 115 -141 181 -221 262 -319 386 -470 514 -628 73 -92 177 -219
230 -284 53 -65 110 -135 126 -156 25 -31 170 -205 196 -235 7 -8 348 255 468
361 24 21 83 70 130 108 48 39 195 158 327 265 335 274 412 335 421 336 4 0
31 22 58 49 28 26 77 69 111 94 33 25 101 80 151 121 169 141 225 185 234 183
5 -2 13 5 18 16 13 23 341 287 353 283 5 -1 7 1 5 5 -3 5 11 19 30 33 20 14
59 46 87 71 102 90 206 170 216 164 5 -3 26 10 45 29 19 20 48 42 63 50 15 8
35 28 46 43 10 16 31 35 47 42 15 7 31 20 34 30 3 10 40 45 83 79 42 33 87 71
99 84 l21 23 -99 125 c-115 144 -225 281 -375 465 -244 299 -399 490 -564 694
-96 120 -290 359 -431 532 -263 322 -352 433 -664 820 -99 123 -206 255 -237
292 -31 38 -64 88 -73 111 -16 43 -16 43 14 91 17 27 31 54 31 61 0 7 15 25
33 41 82 73 363 429 559 708 350 498 748 1195 1012 1775 107 234 97 224 224
221 86 -2 333 -51 431 -86 24 -8 58 -15 75 -15 17 0 123 -22 236 -49 113 -27
252 -59 310 -71 58 -12 117 -28 132 -36 15 -8 41 -14 58 -14 16 0 106 -18 198
-39 92 -22 210 -49 262 -61 52 -12 146 -32 208 -46 61 -14 112 -30 112 -35 0
-5 18 -9 40 -9 34 0 127 -20 415 -89 22 -5 87 -20 145 -31 69 -15 111 -29 123
-41 13 -14 32 -19 75 -19 75 0 315 -54 356 -80 24 -14 50 -20 92 -20 63 0 286
-49 278 -61 -7 -12 65 -31 92 -25 14 4 43 2 66 -4 32 -9 43 -9 54 2 7 7 22 62
34 122 12 60 30 125 41 145 10 20 20 63 23 96 4 56 31 177 137 625 23 96 57
245 76 330 18 85 40 177 48 205 8 27 26 104 41 170 14 66 37 161 50 210 13 50
40 164 60 255 41 186 92 406 122 525 11 44 32 136 47 205 15 69 40 152 56 185
18 39 29 78 30 110 2 86 28 193 49 200 24 8 30 32 36 159 3 60 11 136 19 167
10 44 10 61 1 68 -6 5 -99 30 -206 55 -107 25 -303 71 -435 102 -132 31 -280
67 -330 81 -49 14 -117 30 -150 34 -33 5 -120 25 -195 45 -74 19 -200 48 -280
65 -80 17 -159 39 -176 50 -18 11 -50 19 -75 19 -40 0 -100 13 -369 79 -47 11
-184 43 -305 72 -350 82 -417 99 -439 115 -11 8 -43 14 -70 14 -27 0 -151 24
-275 54 -124 29 -268 63 -320 75 -146 34 -191 64 -230 152 -24 54 -23 23 -15
524 8 511 -5 821 -51 1219 -60 516 -64 547 -74 584 -6 20 -24 118 -40 217 -79
463 -259 1162 -411 1595 -104 293 -111 319 -104 359 13 76 41 101 273 247 122
77 301 190 399 253 104 67 189 115 205 116 19 1 42 16 66 41 21 21 80 65 132
98 52 32 132 83 179 113 238 154 431 273 442 273 22 0 148 81 164 105 9 14 20
22 26 19 5 -3 20 1 33 10 26 17 74 45 145 84 25 14 54 33 65 43 11 9 49 32 85
50 36 18 76 43 90 55 14 12 36 25 50 29 14 4 42 23 64 42 21 20 62 45 90 58
28 13 62 35 75 49 14 14 30 26 37 26 6 0 41 20 78 45 66 46 122 78 206 120 25
13 68 41 95 64 28 23 68 51 90 61 22 11 81 44 130 73 81 48 91 58 103 95 13
38 12 45 -6 75 -10 17 -126 201 -257 407 -131 206 -252 400 -270 431 -18 31
-41 69 -52 85 -30 42 -127 194 -149 231 -10 18 -73 117 -140 220 -218 338
-294 461 -310 500 -9 21 -26 47 -39 59 -12 11 -34 42 -50 70 -15 27 -40 67
-55 89 -14 22 -34 61 -44 87 -15 42 -46 83 -46 62 0 -18 -41 53 -50 88 -6 20
-21 50 -34 65 -13 15 -35 51 -49 78 -13 28 -35 59 -47 70 -13 11 -31 40 -42
65 -11 25 -37 62 -59 83 -22 21 -37 42 -34 47 9 14 -14 63 -45 95 -15 17 -38
54 -51 84 -14 34 -33 60 -53 72 -17 10 -28 19 -24 19 20 0 -39 99 -87 146 -30
30 -55 59 -55 64 0 22 -32 6 -151 -76 -164 -115 -322 -218 -334 -220 -10 -2
-101 -56 -160 -95 -16 -11 -57 -38 -90 -60 -58 -38 -106 -71 -153 -107 -33
-24 -147 -94 -212 -129 -54 -29 -179 -104 -250 -149 -19 -12 -102 -61 -185
-109 -82 -48 -193 -113 -245 -145 -52 -31 -167 -98 -255 -150 -88 -51 -187
-110 -220 -130 -72 -45 -787 -468 -902 -534 -44 -26 -87 -53 -93 -61 -22 -26
-100 -19 -168 16 -49 24 -91 62 -221 198 -322 337 -805 765 -1261 1117 -58 45
-114 91 -124 103 -11 11 -25 21 -32 21 -7 0 -30 17 -51 37 -21 20 -40 37 -43
38 -14 2 -63 35 -148 99 -52 39 -125 91 -161 116 -36 25 -104 72 -151 105
-293 203 -736 487 -1088 698 -178 106 -232 143 -228 155 2 10 11 42 20 73 9
30 25 64 36 74 15 14 20 31 20 74 0 69 32 205 61 260 12 24 25 74 30 117 4 41
22 125 40 187 17 61 46 172 64 247 30 125 91 363 202 790 25 96 60 236 78 310
18 74 58 230 89 345 30 116 62 237 71 270 8 33 27 107 41 165 84 332 112 432
123 439 7 4 18 50 25 102 15 106 54 259 66 259 10 0 28 81 32 144 l3 49 -130
33 c-71 19 -170 43 -218 54 -49 11 -204 50 -345 86 -321 82 -342 88 -477 119
-60 14 -116 32 -125 39 -8 7 -42 16 -76 19 -73 6 -260 57 -244 67 17 11 -62
30 -124 30 -38 0 -165 28 -394 86 -185 48 -375 95 -422 105 -135 30 -210 51
-205 60 6 9 -51 23 -63 15 -5 -3 -81 13 -168 35 -87 22 -199 49 -249 60 -143
31 -245 60 -240 69 7 12 -63 33 -87 26 -12 -3 -49 1 -82 9 -92 22 -118 19
-150 -14z m-1596 -7442 c1321 -88 2570 -511 3669 -1241 829 -551 1557 -1278
2104 -2100 1060 -1595 1472 -3496 1167 -5393 -308 -1918 -1354 -3644 -2920
-4819 -1082 -812 -2340 -1311 -3680 -1460 -300 -34 -444 -41 -840 -41 -574 0
-946 35 -1460 136 -1723 340 -3259 1262 -4384 2634 -684 833 -1196 1848 -1460
2895 -113 446 -170 790 -213 1273 -21 239 -24 906 -5 1132 48 577 139 1086
278 1560 314 1071 837 2025 1571 2867 148 171 490 515 663 668 888 787 1930
1349 3055 1650 794 212 1640 294 2455 239z"/>
<path d="M50630 78693 c-149 -8 -337 -26 -550 -54 -268 -34 -320 -43 -554 -99
-93 -22 -172 -38 -174 -35 -3 2 -17 -2 -32 -10 -16 -8 -77 -29 -137 -46 -59
-17 -154 -49 -210 -70 -57 -21 -124 -44 -150 -50 -26 -5 -55 -16 -63 -24 -8
-8 -49 -28 -90 -45 -41 -17 -104 -46 -140 -64 -36 -19 -82 -39 -103 -46 -20
-6 -43 -17 -50 -23 -27 -26 -101 -69 -125 -73 -15 -3 -34 -12 -43 -20 -8 -8
-19 -14 -23 -14 -13 0 -153 -89 -167 -106 -7 -8 -28 -22 -46 -29 -19 -8 -58
-34 -86 -58 -29 -23 -68 -55 -87 -69 -19 -14 -90 -80 -158 -147 -67 -66 -126
-121 -131 -121 -5 0 -20 -17 -32 -37 -12 -21 -41 -59 -63 -84 -23 -26 -50 -60
-61 -78 -60 -93 -118 -171 -126 -171 -5 0 -22 -28 -38 -62 -15 -35 -39 -76
-53 -93 -13 -16 -39 -66 -57 -110 -18 -44 -37 -85 -42 -91 -12 -15 -96 -271
-114 -349 -52 -221 -63 -499 -27 -715 24 -140 110 -410 162 -502 17 -32 33
-70 35 -85 6 -45 21 -76 50 -103 15 -14 37 -46 50 -72 24 -49 70 -112 121
-162 17 -17 43 -53 58 -79 15 -26 32 -47 37 -47 4 0 48 -40 98 -89 49 -48 104
-99 122 -112 39 -27 126 -97 186 -151 25 -22 53 -38 67 -38 15 0 44 -17 71
-40 25 -22 52 -40 58 -40 7 0 35 -15 62 -33 199 -130 512 -274 750 -347 419
-127 1076 -299 1340 -350 61 -11 180 -37 265 -56 85 -20 232 -51 325 -69 372
-75 623 -126 675 -140 30 -7 80 -16 110 -20 30 -4 134 -22 230 -40 171 -33
420 -75 439 -75 5 0 17 -7 26 -16 9 -9 51 -23 94 -30 122 -21 191 -41 255 -74
32 -16 71 -30 86 -30 34 0 112 -26 170 -57 25 -14 69 -31 98 -38 57 -15 108
-43 136 -74 10 -11 36 -23 57 -26 26 -5 57 -22 91 -51 29 -24 58 -44 66 -44
21 0 154 -140 206 -218 104 -158 128 -248 129 -487 0 -184 -16 -265 -78 -394
-126 -261 -378 -475 -730 -621 -96 -40 -126 -50 -350 -119 -133 -41 -291 -72
-322 -65 -28 7 -135 -13 -174 -32 -14 -7 -104 -20 -200 -30 -142 -13 -238 -15
-519 -10 -385 7 -467 13 -531 43 -34 16 -79 23 -204 32 -127 8 -176 16 -235
36 -117 40 -161 53 -221 65 -31 6 -74 20 -95 31 -22 11 -73 32 -114 45 -90 30
-196 81 -306 146 -45 26 -86 48 -91 48 -6 0 -33 18 -59 40 -27 22 -53 40 -59
40 -6 0 -16 9 -23 20 -7 11 -18 20 -25 20 -6 0 -28 16 -47 36 -19 20 -47 42
-61 50 -15 7 -29 24 -33 37 -3 13 -24 36 -46 51 -22 14 -40 31 -40 37 0 5 -43
53 -95 105 -52 52 -95 101 -95 109 0 8 -16 26 -34 40 -19 15 -45 48 -57 73
-12 26 -35 64 -51 84 -16 20 -35 58 -43 85 -8 26 -28 67 -44 91 -17 24 -35 69
-41 100 -17 85 -27 105 -81 161 -48 50 -71 61 -85 40 -4 -8 -261 -10 -883 -10
-482 1 -901 -2 -931 -6 -52 -8 -55 -10 -58 -39 -3 -35 39 -280 69 -396 36
-143 153 -452 221 -583 22 -42 59 -116 88 -175 37 -76 93 -166 114 -185 13
-11 29 -40 35 -65 8 -29 27 -59 54 -86 23 -23 65 -70 92 -104 28 -34 60 -72
72 -84 12 -11 36 -39 53 -61 71 -91 205 -217 345 -327 50 -38 106 -85 125
-103 19 -18 43 -35 52 -38 10 -3 65 -38 122 -77 239 -160 496 -295 751 -395
39 -15 82 -36 97 -46 14 -11 37 -19 51 -19 14 0 76 -18 138 -40 256 -92 695
-197 1004 -239 503 -70 678 -81 1340 -82 470 -2 559 0 615 14 77 19 115 25
195 33 616 59 1141 181 1570 364 544 232 1013 573 1362 990 261 312 434 695
520 1150 14 75 18 147 18 340 0 214 -3 259 -23 357 -72 358 -218 677 -438 955
-250 316 -618 614 -997 807 -443 225 -1124 442 -1907 606 -378 79 -919 172
-1275 219 -105 14 -213 32 -240 41 -28 8 -81 15 -120 15 -94 1 -221 24 -241
45 -27 26 -60 35 -173 46 -152 14 -181 19 -207 35 -12 9 -76 30 -141 48 -65
19 -141 45 -169 59 -27 15 -70 29 -95 33 -135 22 -398 179 -521 313 -103 111
-151 197 -187 341 -26 103 -26 136 -2 198 11 27 23 81 27 121 6 65 12 79 67
164 76 115 229 270 357 360 147 104 435 237 512 237 13 0 40 9 61 20 62 33
193 60 342 70 77 5 185 16 240 24 146 22 836 23 990 2 61 -9 162 -20 225 -26
172 -15 251 -30 295 -56 22 -12 72 -30 110 -39 125 -29 144 -35 174 -60 16
-14 44 -28 63 -31 39 -8 82 -28 123 -59 17 -12 56 -30 88 -40 38 -12 74 -32
100 -57 23 -21 47 -38 53 -38 20 0 219 -196 290 -284 112 -140 232 -348 287
-501 14 -38 28 -78 32 -87 4 -11 18 -18 34 -18 15 0 32 -5 37 -10 16 -16 1866
-9 1872 8 2 6 10 12 18 12 19 0 18 36 -6 150 -11 52 -20 112 -20 132 0 58 -20
138 -40 158 -21 21 -37 66 -56 156 -7 36 -22 77 -33 93 -26 36 -59 113 -66
153 -7 37 -22 68 -35 68 -5 0 -23 30 -41 67 -17 36 -49 93 -70 126 -22 33 -39
66 -39 73 0 7 -13 28 -29 46 -15 18 -60 75 -99 126 -143 190 -358 415 -496
521 -266 204 -415 301 -658 426 -732 376 -1580 550 -2652 543 -165 -1 -326 -3
-356 -5z"/>
<path d="M57935 78529 c-2 -8 -6 -2088 -7 -4624 l-3 -4610 160 -6 c88 -4 544
-9 1013 -12 791 -5 854 -4 859 11 2 9 10 27 16 39 7 16 9 489 4 1615 -3 876
-2 1627 2 1668 9 90 34 146 73 170 28 17 114 18 1451 23 1405 5 1577 9 1917
42 564 56 1171 196 1550 359 589 253 991 566 1267 986 74 112 152 255 180 328
13 35 31 79 41 96 9 17 22 51 28 76 6 25 28 100 47 166 40 134 57 236 86 519
11 105 25 236 32 292 7 70 8 118 1 155 -6 29 -16 112 -22 183 -7 72 -18 161
-26 199 -9 39 -19 122 -24 185 -9 124 -11 132 -52 201 -17 29 -30 71 -37 118
-7 58 -15 79 -39 107 -17 18 -38 59 -47 91 -9 33 -28 69 -45 86 -16 15 -39 52
-53 81 -72 157 -370 472 -622 657 -55 40 -112 86 -127 101 -14 16 -39 31 -55
35 -33 8 -98 44 -132 73 -13 12 -30 21 -38 21 -7 0 -50 19 -96 43 -45 23 -119
59 -164 80 -46 21 -83 42 -83 48 0 5 -11 9 -25 9 -14 0 -101 27 -193 59 -92
33 -187 65 -212 71 -25 6 -62 17 -82 25 -41 16 -81 25 -393 90 -285 59 -680
105 -1065 125 -96 4 -1097 11 -2225 14 -1127 3 -2231 9 -2452 13 -341 5 -403
4 -408 -8z m3950 -1519 c895 -7 1087 -11 1175 -25 375 -57 747 -189 1000 -356
127 -84 290 -246 358 -358 97 -158 144 -330 143 -526 -1 -329 -55 -527 -203
-743 -68 -99 -210 -240 -322 -319 -208 -148 -511 -271 -826 -337 l-105 -22
-1550 19 c-852 10 -1551 19 -1552 20 -1 1 -4 463 -8 1027 -3 564 -10 1140 -16
1280 -10 290 -11 285 71 328 44 22 50 22 405 22 198 -1 842 -5 1430 -10z"/>
<path d="M36170 78523 c-818 -3 -886 -4 -897 -20 -10 -13 -13 -952 -13 -4614
l0 -4597 843 -1 c463 0 889 -4 947 -7 83 -5 117 -3 163 11 31 9 55 21 52 26
-4 5 -2 9 4 9 6 0 13 10 16 23 3 12 7 875 8 1917 2 1888 2 1895 23 1961 23 74
61 144 94 174 22 20 38 20 2351 23 l2328 2 35 -34 c73 -73 68 70 66 -1933 -1
-1816 3 -2043 36 -2135 17 -48 50 -88 74 -88 8 0 25 7 37 15 18 13 148 16 934
24 l912 8 17 23 c13 18 19 52 23 154 9 201 3 9009 -6 9028 -5 9 -18 19 -30 22
-12 4 -452 6 -977 6 -823 -1 -956 -3 -970 -15 -9 -8 -21 -15 -27 -15 -6 0 -14
-7 -17 -16 -3 -9 -6 -755 -6 -1659 0 -1178 -3 -1659 -11 -1697 -14 -66 -39
-115 -74 -148 l-27 -25 -2325 -3 c-2638 -2 -2372 -12 -2420 87 l-28 56 -5
1697 c-3 933 -7 1698 -10 1700 -3 3 -22 12 -43 22 -49 22 -14 22 -1077 19z"/>
</g>
</svg>
