<?xml version="1.0" standalone="no"?>
<!DOCTYPE svg PUBLIC "-//W3C//DTD SVG 20010904//EN"
 "http://www.w3.org/TR/2001/REC-SVG-20010904/DTD/svg10.dtd">
<svg version="1.0" xmlns="http://www.w3.org/2000/svg"
 width="1920.000000pt" height="1500.000000pt" viewBox="0 0 1920.000000 1500.000000"
 preserveAspectRatio="xMidYMid meet">

<g transform="translate(0.000000,1500.000000) scale(0.100000,-0.100000)"
fill="#000000" stroke="none">
<path d="M7377 10823 c-4 -3 -7 -204 -7 -445 0 -241 -4 -438 -8 -438 -5 0 -60
-7 -123 -15 -292 -38 -529 -93 -824 -190 -563 -186 -1045 -451 -1522 -837 -40
-32 -79 -58 -87 -58 -7 0 -49 37 -92 83 -465 489 -681 712 -691 712 -6 0 -132
-115 -280 -256 -147 -140 -322 -306 -388 -369 -66 -62 -120 -118 -120 -125 0
-7 101 -118 225 -247 368 -382 575 -600 578 -608 1 -4 -27 -47 -64 -96 -322
-431 -601 -978 -792 -1549 -65 -195 -161 -552 -177 -659 l-7 -46 -667 -2 -666
-3 -3 -546 -2 -547 1242 -6 c684 -4 1347 -6 1473 -4 l230 3 7 150 c32 688 223
1322 568 1882 161 261 320 463 530 673 421 421 915 703 1472 839 989 242 2068
-71 2819 -819 566 -563 947 -1314 1074 -2120 7 -47 16 -96 19 -110 8 -34 36
-381 36 -447 l0 -52 478 -1 c262 0 894 2 1405 6 l927 7 0 549 0 548 -615 0
c-692 0 -626 -8 -640 80 -17 108 -104 434 -157 595 -173 521 -362 914 -661
1373 -48 73 -87 135 -87 139 0 3 37 44 83 92 488 514 597 631 597 639 0 5 -84
90 -187 188 -103 98 -279 267 -391 374 -112 107 -207 195 -211 195 -4 0 -146
-145 -315 -322 -170 -178 -313 -323 -318 -323 -5 0 -46 33 -91 73 -154 136
-466 367 -662 489 -314 194 -650 350 -1005 466 -254 82 -404 119 -660 163 -69
11 -128 24 -132 28 -4 4 -9 207 -10 451 l-3 445 -546 3 c-300 1 -549 -1 -552
-5z"/>
<path d="M15445 9890 c-2 -4 -34 -121 -71 -261 -37 -140 -72 -274 -79 -299
l-12 -45 -94 3 c-196 6 -454 -30 -643 -91 -85 -28 -100 -30 -108 -17 -204 343
-308 514 -316 522 -7 7 -99 -43 -276 -152 -146 -89 -266 -166 -266 -171 0 -4
68 -120 151 -256 84 -136 156 -257 161 -269 8 -18 1 -29 -52 -80 -123 -117
-254 -299 -351 -487 -28 -54 -56 -100 -63 -103 -6 -2 -144 25 -306 61 -161 36
-298 65 -304 65 -7 0 -28 -76 -50 -177 -21 -98 -51 -234 -67 -302 -16 -69 -26
-128 -22 -131 9 -8 48 -17 368 -86 116 -24 219 -49 231 -53 20 -9 22 -19 26
-153 4 -106 14 -183 38 -300 18 -87 30 -163 27 -171 -3 -7 -47 -38 -98 -69
-320 -188 -439 -260 -439 -264 0 -4 308 -534 314 -541 0 -1 37 20 81 46 44 27
162 96 263 155 l183 108 112 -114 c181 -184 345 -306 532 -394 80 -38 95 -49
95 -69 0 -13 -27 -140 -60 -283 -33 -143 -60 -265 -60 -270 0 -5 42 -18 93
-29 50 -11 188 -42 304 -68 117 -27 215 -46 218 -43 4 3 135 561 135 574 0 1
55 4 123 7 270 14 515 73 732 178 43 22 86 39 95 38 8 0 100 -106 205 -235
104 -129 195 -233 202 -232 6 2 114 86 239 188 125 102 232 188 237 191 10 7
-22 50 -140 195 -188 230 -222 272 -233 290 -11 19 -7 28 37 85 71 90 133 188
187 297 25 50 52 92 60 92 7 0 123 -25 257 -56 340 -78 339 -78 348 -68 5 5
18 54 31 109 12 55 42 183 66 284 24 101 44 189 44 195 0 11 -99 37 -440 116
-198 46 -176 21 -183 207 -6 176 -23 287 -69 443 -16 58 -32 112 -35 121 -3
12 18 29 74 63 190 114 458 288 455 297 -3 14 -303 492 -318 508 -11 12 -19
10 -56 -14 -24 -16 -140 -87 -258 -158 -118 -71 -218 -131 -222 -134 -5 -2
-41 27 -80 64 -132 124 -260 222 -410 313 -49 29 -88 55 -88 59 0 3 34 139 76
301 42 162 77 301 77 309 2 11 -35 24 -128 49 -285 74 -476 119 -480 112z
m-195 -1200 c203 -25 420 -111 575 -227 431 -323 600 -870 423 -1373 -170
-482 -620 -801 -1133 -802 -207 -1 -370 38 -555 133 -402 206 -651 610 -653
1059 -1 151 14 252 58 386 39 119 68 179 142 294 67 102 229 267 328 332 251
163 534 232 815 198z"/>
<path d="M7994 6060 c-161 -29 -303 -98 -387 -189 -67 -73 -97 -145 -97 -234
0 -93 25 -152 95 -223 104 -105 201 -142 582 -219 235 -47 295 -66 349 -108
66 -53 66 -152 0 -216 -101 -97 -396 -121 -565 -46 -70 32 -156 117 -186 183
l-19 43 -152 -3 c-84 -2 -155 -5 -158 -8 -3 -3 2 -33 10 -65 47 -182 181 -315
388 -386 118 -41 222 -53 416 -46 139 4 179 9 255 32 213 62 357 201 385 368
32 199 -100 365 -357 447 -92 30 -286 72 -393 85 -75 9 -194 42 -239 64 -125
64 -108 182 38 249 66 30 227 41 337 23 116 -20 220 -97 240 -178 6 -23 7 -23
170 -23 90 0 164 1 164 3 0 16 -37 121 -55 157 -65 127 -202 222 -400 275 -71
19 -343 29 -421 15z"/>
<path d="M5646 6032 c-3 -5 -4 -337 -3 -738 l2 -729 163 -3 162 -2 0 307 c0
225 4 314 13 331 l12 24 375 -1 c282 -1 376 -5 382 -14 4 -7 8 -154 8 -328 0
-174 2 -318 4 -320 2 -2 74 -3 160 -1 l156 3 0 739 0 740 -160 0 -160 0 0
-259 c0 -145 -4 -271 -10 -285 l-10 -26 -379 0 -379 0 -6 25 c-4 14 -6 142 -6
283 l1 257 -160 3 c-88 1 -162 -1 -165 -6z"/>
<path d="M9275 5978 c-3 -35 -5 -367 -3 -738 l3 -675 165 0 165 0 3 276 2 277
288 5 c218 4 305 9 361 22 226 51 356 155 397 315 24 94 15 239 -20 315 -49
108 -166 192 -331 237 -76 20 -106 22 -552 25 l-471 4 -7 -63z m918 -207 c107
-42 157 -117 143 -214 -10 -65 -53 -119 -123 -153 l-58 -29 -272 -3 -272 -3
-3 208 c-2 114 -1 212 1 216 2 5 121 7 265 5 243 -4 265 -5 319 -27z"/>
</g>
</svg>
