<?xml version="1.0" standalone="no"?>
<!DOCTYPE svg PUBLIC "-//W3C//DTD SVG 20010904//EN"
 "http://www.w3.org/TR/2001/REC-SVG-20010904/DTD/svg10.dtd">
<svg version="1.0" xmlns="http://www.w3.org/2000/svg"
 width="1190.000000pt" height="631.000000pt" viewBox="0 0 1190.000000 631.000000"
 preserveAspectRatio="xMidYMid meet">

<g transform="translate(0.000000,631.000000) scale(0.100000,-0.100000)"
fill="#000000" stroke="none">
<path d="M4288 5983 l-3 -327 -120 -17 c-604 -85 -1209 -347 -1695 -734 -47
-37 -90 -71 -96 -76 -6 -5 -117 104 -299 296 -159 168 -291 305 -293 305 -4 0
-200 -185 -476 -447 l-129 -123 159 -166 c463 -485 455 -477 441 -495 -6 -10
-53 -78 -103 -151 -292 -426 -498 -889 -615 -1383 -23 -93 -45 -180 -50 -192
l-9 -23 -500 0 -500 0 0 -415 0 -415 1104 0 1105 0 5 52 c3 29 10 112 16 183
90 1111 782 2057 1736 2374 246 82 431 111 694 111 372 -1 709 -85 1039 -261
796 -424 1346 -1340 1388 -2311 l6 -148 1059 0 1058 0 0 420 0 420 -465 0
c-364 0 -466 3 -469 13 -2 6 -22 89 -45 182 -112 470 -312 932 -576 1334 -37
56 -65 105 -63 110 2 5 116 127 253 271 138 144 251 266 253 270 3 9 -582 570
-595 570 -5 0 -112 -108 -237 -240 -126 -132 -232 -240 -235 -240 -3 0 -46 35
-96 77 -395 336 -842 582 -1316 723 -99 29 -317 80 -404 94 -22 4 -52 9 -67
12 l-28 6 0 334 0 334 -415 0 -415 0 -2 -327z"/>
<path d="M10316 5568 c-8 -29 -33 -125 -56 -213 -58 -230 -33 -205 -208 -205
-165 0 -277 -16 -392 -55 -57 -20 -76 -22 -82 -13 -4 7 -59 96 -121 198 -86
142 -117 185 -132 184 -31 0 -385 -216 -385 -234 0 -8 53 -104 118 -212 l119
-197 -54 -53 c-101 -99 -260 -330 -288 -418 -3 -11 -10 -20 -15 -20 -5 0 -91
18 -192 41 -101 22 -204 43 -229 46 l-46 5 -17 -68 c-26 -114 -77 -347 -79
-368 -2 -18 20 -25 228 -71 l230 -51 3 -55 c5 -96 31 -282 51 -356 10 -40 15
-70 10 -67 -15 9 -399 -225 -399 -243 0 -22 220 -393 233 -393 8 0 242 136
369 214 14 8 34 -7 116 -89 115 -117 221 -195 358 -267 55 -28 100 -52 102
-53 2 -2 -19 -100 -46 -219 -27 -119 -48 -216 -47 -216 2 0 92 -20 202 -45
109 -25 207 -47 218 -50 11 -2 26 0 34 4 7 5 33 98 60 212 l46 204 75 8 c263
26 391 57 563 136 38 17 72 31 76 31 4 0 41 -42 82 -92 143 -178 212 -258 221
-258 4 0 89 65 188 144 l180 144 -150 186 -150 185 60 83 c32 46 80 122 105
170 26 49 52 88 59 88 7 0 111 -23 231 -50 120 -28 219 -50 220 -48 5 6 105
431 105 448 0 12 -17 19 -62 29 -35 7 -138 30 -229 52 l-166 40 -6 117 c-6
118 -31 265 -65 377 l-18 60 198 123 c109 68 198 128 198 134 0 12 -227 385
-239 392 -4 3 -27 -8 -52 -23 -172 -109 -342 -211 -351 -211 -6 0 -47 35 -92
78 -89 84 -191 157 -307 222 -41 23 -64 40 -52 37 26 -6 18 -29 93 260 34 131
44 185 36 192 -13 11 -152 50 -301 86 -60 14 -118 28 -127 31 -14 4 -20 -6
-32 -48z m-51 -877 c543 -116 853 -687 653 -1204 -93 -242 -312 -446 -568
-528 -126 -40 -311 -51 -440 -25 -283 58 -510 233 -635 489 -129 266 -117 597
30 842 203 336 584 505 960 426z"/>
<path d="M4745 2736 c-38 -8 -90 -21 -115 -30 -188 -69 -282 -229 -220 -374
50 -115 153 -170 430 -227 213 -44 275 -64 317 -100 31 -27 38 -39 38 -71 0
-73 -62 -123 -181 -145 -177 -33 -356 33 -409 152 l-18 39 -120 0 -119 0 7
-37 c26 -145 146 -262 325 -318 82 -25 313 -32 410 -11 163 35 289 123 329
231 55 146 -2 271 -159 350 -83 42 -132 56 -350 100 -187 39 -246 63 -268 108
-21 43 9 95 71 126 95 47 299 37 377 -19 16 -11 39 -37 51 -58 13 -20 28 -40
33 -45 12 -8 177 -8 208 1 73 19 -71 222 -196 277 -128 57 -307 77 -441 51z"/>
<path d="M3002 2173 l3 -558 115 0 115 0 3 248 2 247 290 0 290 0 1 -225 c1
-124 2 -235 3 -247 1 -23 4 -23 121 -23 l120 0 3 558 2 557 -109 0 c-86 0
-113 -3 -125 -16 -14 -13 -16 -47 -16 -215 l0 -199 -290 0 -290 0 -2 213 -3
212 -118 3 -117 3 2 -558z"/>
<path d="M5718 2724 c-5 -4 -8 -256 -8 -561 l0 -553 125 0 125 0 0 214 0 214
238 4 c248 5 292 12 385 60 61 31 123 94 148 151 34 77 34 203 -1 271 -50 98
-148 161 -292 187 -72 13 -709 25 -720 13z m709 -212 c58 -30 77 -63 77 -128
-1 -59 -27 -105 -73 -129 -46 -24 -147 -35 -313 -35 l-158 0 0 161 0 161 213
-4 c197 -3 215 -5 254 -26z"/>
<path d="M11491 1093 c-5 -10 -12 -35 -16 -56 l-7 -37 66 0 c72 0 72 0 78 75
3 30 3 30 -54 33 -47 2 -59 0 -67 -15z"/>
<path d="M1123 1023 c-40 -16 3 -23 136 -23 139 0 192 9 138 24 -26 7 -257 7
-274 -1z"/>
<path d="M825 938 c-32 -137 -95 -473 -95 -509 0 -83 2 -84 292 -87 183 -2
259 0 281 9 34 15 57 60 57 117 0 65 -37 193 -83 284 l-44 87 80 3 81 3 13 50
c7 28 13 53 13 58 0 4 -68 7 -150 7 -144 0 -152 -1 -174 -23 -45 -46 -42 -83
17 -204 66 -134 98 -240 76 -254 -23 -15 -275 -11 -287 4 -9 10 0 73 33 241
25 125 45 229 45 232 0 2 -34 4 -75 4 -69 0 -75 -2 -80 -22z"/>
<path d="M1992 947 c-11 -13 -112 -484 -112 -523 0 -13 11 -36 24 -51 l24 -28
182 -3 c151 -3 185 -1 205 12 21 14 27 14 52 1 37 -20 162 -20 188 -1 17 12
23 12 47 0 33 -17 130 -17 178 -1 21 7 40 23 48 39 12 25 62 234 76 319 l6 36
-59 18 c-32 9 -65 15 -72 13 -8 -3 -24 -57 -40 -137 -29 -138 -47 -174 -83
-169 -30 4 -31 48 -6 163 11 53 18 100 15 105 -6 10 -92 40 -116 40 -19 0 -28
-23 -49 -135 -23 -124 -39 -164 -65 -171 -51 -13 -56 19 -25 156 11 47 20 92
20 101 0 10 -18 21 -53 32 -50 16 -87 22 -87 14 0 -4 -45 -213 -55 -254 -9
-40 -33 -53 -95 -53 -70 0 -90 6 -90 30 0 9 18 107 40 216 22 109 40 209 40
222 0 20 -4 22 -64 22 -39 0 -68 -5 -74 -13z"/>
<path d="M3085 948 c-17 -52 -95 -475 -95 -515 0 -84 8 -87 225 -91 200 -4
256 5 280 42 15 22 85 310 85 346 0 11 -23 23 -67 38 -37 12 -68 20 -69 19 -1
-1 -16 -67 -33 -146 -17 -79 -36 -149 -42 -157 -16 -20 -192 -20 -208 0 -9 11
-3 60 28 220 22 113 43 217 47 231 l6 25 -76 0 c-52 0 -78 -4 -81 -12z"/>
<path d="M4205 950 c-3 -5 -9 -32 -12 -60 l-6 -50 62 0 c67 0 66 -1 80 73 l8
47 -63 0 c-34 0 -66 -4 -69 -10z"/>
<path d="M4377 946 c-3 -7 -9 -34 -12 -60 l-7 -46 61 0 c68 0 70 3 85 83 l7
37 -64 0 c-46 0 -66 -4 -70 -14z"/>
<path d="M9661 923 c-6 -21 -11 -48 -11 -60 0 -21 4 -23 59 -23 33 0 63 4 66
10 3 5 9 32 12 60 l6 50 -61 0 -61 0 -10 -37z"/>
<path d="M9837 946 c-3 -7 -9 -34 -12 -60 l-7 -46 65 0 65 0 7 38 c3 20 9 47
12 60 5 21 3 22 -60 22 -46 0 -66 -4 -70 -14z"/>
<path d="M10347 947 c-10 -7 -24 -32 -31 -57 -13 -44 -13 -44 45 -164 59 -122
87 -211 76 -240 -6 -14 -24 -16 -134 -14 l-128 3 -3 27 c-2 15 6 75 18 134 12
58 20 107 18 109 -6 6 -133 43 -136 40 -4 -3 -30 -119 -52 -227 -18 -92 -7
-88 -284 -88 -192 0 -246 3 -255 14 -8 10 -5 47 15 150 14 75 24 141 22 145
-2 5 -37 -1 -78 -13 l-75 -22 -27 -119 c-14 -66 -27 -147 -27 -181 -2 -104
-22 -98 406 -102 296 -2 369 0 392 11 24 12 31 12 46 0 14 -10 64 -13 201 -13
178 0 184 1 210 23 58 50 39 223 -41 383 -25 49 -45 90 -45 92 0 1 36 2 79 2
87 0 85 -2 96 74 l7 46 -149 0 c-104 0 -154 -4 -166 -13z"/>
<path d="M5596 933 c-3 -10 -8 -35 -12 -55 l-6 -38 61 0 c67 0 76 8 83 70 l3
35 -62 3 c-52 2 -62 0 -67 -15z"/>
<path d="M11372 903 c-6 -26 -8 -51 -6 -55 8 -13 111 -9 122 5 5 6 13 31 17
55 l7 42 -65 0 -65 0 -10 -47z"/>
<path d="M11556 933 c-3 -10 -8 -35 -12 -55 l-6 -38 65 0 66 0 6 38 c4 20 9
45 12 55 4 15 -4 17 -61 17 -53 0 -66 -3 -70 -17z"/>
<path d="M8712 832 c-7 -5 -10 -16 -6 -25 5 -15 -4 -17 -85 -17 -114 0 -155
-15 -169 -62 -20 -62 -40 -143 -52 -200 l-11 -58 -62 0 c-95 0 -94 -1 -67 134
12 63 20 122 17 129 -5 12 -126 62 -133 54 -1 -1 -15 -69 -32 -151 -17 -82
-37 -153 -44 -157 -7 -5 -48 -9 -91 -9 -95 0 -97 3 -74 114 24 115 22 152 -8
182 -25 25 -27 25 -161 22 -120 -3 -137 -5 -150 -22 -16 -23 -29 -84 -19 -94
3 -4 47 -9 96 -11 108 -4 114 -10 97 -95 -16 -83 -37 -96 -153 -96 l-92 0 -12
-57 c-6 -31 -11 -60 -11 -65 0 -13 189 -9 259 6 54 11 68 11 90 0 40 -21 299
-19 329 2 19 13 25 14 39 2 12 -10 86 -14 327 -16 383 -4 410 -2 437 41 36 60
21 181 -42 332 -45 108 -64 125 -141 125 -35 0 -69 -4 -76 -8z m-62 -149 c0
-10 -9 -56 -19 -102 -19 -88 -35 -111 -78 -111 -19 0 -22 4 -19 23 3 12 12 58
21 102 16 84 31 105 72 105 15 0 23 -6 23 -17z m151 -59 c19 -44 28 -83 26
-109 l-2 -40 -54 -3 -53 -3 5 33 c3 18 12 70 18 116 7 45 17 81 22 79 6 -2 23
-34 38 -73z"/>
<path d="M322 778 c-24 -12 -49 -76 -39 -102 5 -13 24 -16 95 -16 111 0 117
-5 103 -87 -16 -88 -39 -103 -152 -103 -101 0 -99 1 -114 -89 l-7 -44 135 5
c205 8 235 32 276 216 27 117 27 172 2 203 -18 23 -26 24 -148 26 -79 2 -137
-2 -151 -9z"/>
<path d="M1600 678 c-30 -145 -72 -229 -161 -323 -38 -40 -69 -75 -69 -77 0
-3 25 -22 56 -42 l56 -38 37 30 c51 41 135 148 166 210 25 51 75 243 75 289 0
19 -11 25 -66 43 -36 11 -67 20 -68 20 -2 0 -13 -50 -26 -112z"/>
<path d="M4606 771 c-3 -9 -17 -71 -31 -139 -13 -67 -29 -131 -35 -142 -10
-19 -22 -20 -259 -20 -196 0 -251 3 -260 13 -8 11 -5 49 14 152 14 75 23 140
20 143 -6 7 -136 -26 -147 -36 -3 -4 -20 -77 -37 -163 -33 -163 -32 -189 4
-219 26 -22 732 -28 774 -7 24 12 31 12 47 -1 16 -12 49 -13 189 -8 94 4 186
10 205 14 19 5 51 5 70 0 19 -4 117 -11 217 -14 159 -6 185 -5 207 9 22 15 28
15 53 2 37 -19 218 -20 252 -1 20 11 28 11 50 0 32 -17 396 -20 454 -3 20 5
44 21 53 34 20 31 76 299 72 350 -3 37 -6 41 -41 49 -59 15 -111 -14 -315
-173 -198 -155 -220 -165 -206 -88 5 23 8 58 9 77 0 34 -2 35 -55 53 -30 9
-60 15 -66 13 -6 -2 -17 -35 -24 -73 -21 -111 -30 -123 -103 -123 -34 0 -49 4
-54 16 -3 8 4 63 16 122 11 59 21 114 21 122 0 11 -23 23 -67 38 -37 12 -68
20 -69 19 -1 -1 -16 -67 -33 -146 -18 -80 -37 -151 -43 -158 -7 -9 -41 -13
-113 -13 l-104 0 34 55 c42 70 70 180 56 217 -6 15 -19 32 -30 37 -28 15 -392
14 -426 -1 -14 -6 -28 -22 -32 -36 -9 -38 14 -120 56 -200 l39 -73 -127 3
-126 3 -3 28 c-2 15 6 73 17 129 12 56 17 106 13 110 -5 5 -36 17 -70 27 -56
17 -62 18 -66 2z m598 -127 c7 -18 -22 -86 -52 -123 -16 -20 -22 -22 -41 -12
-48 26 -97 121 -74 144 3 4 41 7 84 7 61 0 78 -3 83 -16z m1156 -99 c-18 -54
-52 -75 -122 -75 -38 0 -57 4 -53 10 4 6 46 40 93 76 78 59 87 63 90 45 2 -12
-2 -37 -8 -56z"/>
<path d="M6728 757 c-84 -64 -158 -187 -144 -241 9 -36 53 -84 97 -107 22 -11
39 -23 39 -27 0 -4 -22 -30 -50 -57 -27 -27 -50 -55 -50 -61 0 -12 93 -84 109
-84 15 0 134 132 172 190 52 80 71 135 76 226 7 103 -10 144 -71 174 -65 31
-125 27 -178 -13z m120 -109 c18 -18 14 -46 -15 -99 -28 -52 -45 -59 -81 -33
-40 28 -21 82 43 124 35 23 37 24 53 8z"/>
<path d="M7245 768 c-3 -12 -12 -55 -20 -94 -29 -145 -93 -265 -181 -342 -24
-22 -44 -45 -44 -51 0 -6 25 -27 55 -47 l54 -36 33 27 c89 74 167 190 197 290
19 67 51 206 51 225 0 5 -26 17 -57 26 -32 9 -63 19 -70 21 -7 3 -15 -6 -18
-19z"/>
<path d="M10865 777 c-3 -7 -14 -57 -26 -112 -29 -139 -66 -212 -155 -305
l-74 -77 23 -20 c12 -11 37 -30 55 -43 43 -29 60 -21 151 75 66 70 68 71 97
58 43 -18 234 -17 261 2 19 13 24 13 50 0 38 -20 161 -20 190 0 19 13 24 13
50 0 58 -30 191 -13 218 29 14 22 85 308 85 344 0 13 -18 24 -67 40 -37 12
-68 20 -70 19 -1 -2 -14 -59 -28 -128 -13 -68 -30 -136 -36 -151 -20 -49 -79
-48 -79 1 0 14 9 66 20 115 28 127 30 121 -42 144 -35 10 -66 16 -70 13 -4 -4
-19 -63 -33 -131 -14 -69 -28 -133 -31 -143 -7 -23 -40 -40 -64 -32 -26 8 -25
34 4 163 14 62 19 105 14 109 -6 3 -37 14 -70 23 l-59 18 -8 -21 c-4 -12 -18
-76 -31 -141 -15 -78 -30 -126 -42 -138 -23 -23 -100 -25 -123 -2 -17 17 -16
24 16 174 10 46 16 86 14 88 -2 3 -34 13 -70 23 -49 13 -67 15 -70 6z"/>
<path d="M3206 233 c-4 -21 -10 -48 -13 -60 -5 -22 -2 -23 55 -23 70 0 80 9
84 71 l3 44 -61 3 -62 3 -6 -38z"/>
<path d="M3376 248 c-3 -13 -6 -40 -6 -60 l0 -38 59 0 c65 0 65 0 76 74 l7 46
-65 0 c-59 0 -65 -2 -71 -22z"/>
<path d="M7925 248 c-3 -7 -6 -31 -8 -53 l-2 -40 54 -3 c30 -2 58 1 62 5 5 5
13 30 18 56 l8 47 -64 0 c-42 0 -65 -4 -68 -12z"/>
<path d="M8091 214 c-6 -25 -9 -49 -6 -55 4 -5 31 -9 60 -9 62 0 75 13 75 74
l0 36 -59 0 -59 0 -11 -46z"/>
<path d="M3267 106 c-3 -7 -9 -34 -12 -60 l-7 -46 65 0 65 0 7 37 c3 21 9 48
12 61 5 21 3 22 -60 22 -46 0 -66 -4 -70 -14z"/>
</g>
</svg>
