<!--?xml version="1.0" encoding="UTF-8" standalone="no" ?-->

<svg xmlns="http://www.w3.org/2000/svg" xmlns:xlink="http://www.w3.org/1999/xlink" version="1.1" width="400" height="500" viewBox="535 189.5 400 500" xml:space="preserve">
<desc>Created by Logonomy.ir</desc>
<defs>
</defs>


<g transform="matrix(2.65 0 0 2.65 735.63 387.88)" id="62761221-bbe5-4db8-ad50-0f7b9d2dced5">
<g style="" vector-effect="non-scaling-stroke">
		<g transform="matrix(1 0 0 1 40.2 21.25)" id="Layer_1">
<path style="stroke: none; stroke-width: 1; stroke-dasharray: none; stroke-linecap: butt; stroke-dashoffset: 0; stroke-linejoin: miter; stroke-miterlimit: 4; fill: rgb(109,104,117); fill-rule: nonzero; opacity: 1;" transform=" translate(-115.2, -96.25)" d="M 138.8 70.3 c -0.4 -0.9 -0.8 -2 -1.3 -3.3 l -11.2 -3 c -0.7 -1.6 -1.4 -3.1 -2.1 -4.4 c -0.7 -1.4 -1.5 -2.8 -2.2 -4.1 l 7.1 -4.6 c -0.7 -1.1 -1.2 -2 -1.7 -2.8 L 96 63 c 0.7 1.5 1.3 3.1 1.6 4.6 c 0.5 2.3 0.5 4.4 0.1 6.4 c -0.4 2 -1.2 3.6 -2.3 5 c -1.1 1.4 -2.6 2.4 -4.5 3 c -0.9 0.3 -1.8 0.5 -2.9 0.6 l 11 61.8 c 1 -0.1 2.2 -0.3 3.5 -0.5 l -2.3 -18.4 c 1.6 -0.3 3.1 -0.6 4.6 -1 c 1.5 -0.3 2.9 -0.8 4.4 -1.5 l 0.4 0.4 l 11 14.3 c 1.3 -0.8 2.4 -1.4 3.3 -1.9 c 0.9 -0.5 1.9 -1.3 3.1 -2.3 c 1.2 -0.9 2.1 -1.7 2.6 -2.5 c 0.6 -0.8 1.3 -1.7 2.1 -2.8 l -9.3 -15.2 c 2 -2 3.4 -4.5 4.5 -7.3 l 13 7.5 c 0.5 -1.2 0.8 -2.3 1.1 -3.2 c 0.3 -1 0.5 -2.1 0.7 -3.5 c 0.3 -1.5 0.4 -2.7 0.5 -3.7 c 0 -1 0.1 -2.2 0.2 -3.6 l -11.2 -8.7 c 0 -1.7 0 -3.3 0 -5 c 0 -1.6 -0.1 -3.2 -0.2 -4.7 l 10.6 0.4 c -0.3 -1.6 -0.6 -2.9 -0.8 -3.9 c -0.2 -1 -0.5 -2.2 -1 -3.5 C 139.5 72.5 139.1 71.3 138.8 70.3 z" stroke-linecap="round"></path>
</g>
		<g transform="matrix(1 0 0 1 -23.73 9.65)" id="Layer_1">
<path style="stroke: none; stroke-width: 1; stroke-dasharray: none; stroke-linecap: butt; stroke-dashoffset: 0; stroke-linejoin: miter; stroke-miterlimit: 4; fill: rgb(181,131,141); fill-rule: nonzero; opacity: 1;" transform=" translate(-51.27, -84.65)" d="M 72.5 74.5 c -1.7 -2.1 -3 -4.3 -3.9 -6.5 c -0.9 -2.2 -1.3 -4.4 -1.4 -6.6 c 0 -1.1 0.1 -2.1 0.3 -3 L 17.1 24.4 c -0.4 0.7 -0.9 1.5 -1.5 2.5 l 13.7 10.4 c -0.5 1.4 -1 2.7 -1.5 4.1 c -0.5 1.4 -0.9 2.9 -1.1 4.5 l -0.5 0 L 9.7 44.3 c -0.2 1.6 -0.5 3 -0.7 4.2 c -0.2 1.2 -0.3 2.7 -0.3 4.5 c -0.1 1.8 -0.1 3.3 0.1 4.5 c 0.2 1.2 0.5 2.7 0.8 4.4 l 18 3.9 c 0.6 3.8 1.9 7.7 3.7 11.5 l -14.8 8 c 0.7 1.8 1.5 3.4 2.1 4.8 c 0.7 1.4 1.6 3 2.7 4.8 c 1.2 2 2.3 3.6 3.2 4.8 c 0.9 1.2 2.1 2.7 3.4 4.5 l 15.3 -6.1 c 1.7 1.8 3.4 3.7 5 5.5 c 1.7 1.8 3.3 3.5 5.1 5.1 l -5.9 16.5 c 2 1.6 3.6 2.8 4.9 3.8 c 1.2 0.9 2.8 2 4.6 3.1 c 2 1.2 3.6 2.2 4.9 2.8 c 1.3 0.6 2.8 1.4 4.6 2.2 l 7.8 -15.5 c 2.1 0.9 4 1.6 5.9 2.2 c 1.8 0.5 3.7 1 5.6 1.6 l 4.1 18.8 c 1.6 0.3 2.9 0.5 4.1 0.7 L 83.5 82.4 c -1.7 -0.6 -3.3 -1.4 -4.9 -2.4 C 76.2 78.4 74.2 76.6 72.5 74.5 z" stroke-linecap="round"></path>
</g>
		<g transform="matrix(1 0 0 1 -2.85 -40.2)" id="Layer_1">
<path style="stroke: none; stroke-width: 1; stroke-dasharray: none; stroke-linecap: butt; stroke-dashoffset: 0; stroke-linejoin: miter; stroke-miterlimit: 4; fill: rgb(229,152,155); fill-rule: nonzero; opacity: 1;" transform=" translate(-72.15, -34.8)" d="M 90.7 58.2 c 0.9 0.7 1.8 1.6 2.6 2.4 l 31.5 -14.8 c -0.6 -0.7 -1.3 -1.5 -2.1 -2.4 l -8.6 2.7 c -1.1 -1.2 -2.2 -2.3 -3.2 -3.4 c -1.1 -1.1 -2.2 -2.2 -3.5 -3.3 l 0 -0.3 l 2.1 -8.7 c -1.2 -1 -2.2 -1.8 -3 -2.5 c -0.8 -0.7 -1.9 -1.5 -3.2 -2.4 c -1.2 -0.9 -2.3 -1.7 -3.1 -2.1 c -0.9 -0.5 -1.9 -1.1 -3.1 -1.7 l -4.6 7.4 c -2.8 -1.7 -5.7 -3 -8.6 -4 l -3.1 -11.1 c -1.3 -0.5 -2.4 -0.9 -3.4 -1.3 c -1 -0.3 -2.2 -0.7 -3.5 -1 c -1.5 -0.4 -2.7 -0.6 -3.6 -0.8 c -0.9 -0.1 -2.1 -0.3 -3.5 -0.6 l 0.5 10.2 c -1.6 0 -3.2 -0.1 -4.8 -0.2 c -1.6 -0.1 -3.2 -0.1 -4.7 0 L 49.2 9 c -1.5 0.2 -2.8 0.3 -3.7 0.4 c -0.9 0.1 -2.1 0.3 -3.4 0.6 c -1.4 0.3 -2.5 0.6 -3.3 0.9 c -0.8 0.3 -1.8 0.7 -3 1.1 l 7.1 12.4 c -1.4 0.7 -2.6 1.4 -3.6 2.2 c -1.1 0.8 -2.1 1.6 -3.2 2.5 l -14.2 -8.6 c -0.9 0.8 -1.7 1.4 -2.4 2 l 49.9 33.7 c 0.9 -0.9 2 -1.7 3.3 -2.3 c 1.9 -0.8 3.9 -1.1 6 -0.9 c 2.1 0.1 4.2 0.6 6.2 1.5 C 86.8 55.5 88.8 56.7 90.7 58.2 z" stroke-linecap="round"></path>
</g>
</g>
</g>
</svg>