<svg id="Layer_1" data-name="Layer 1" xmlns="http://www.w3.org/2000/svg" viewBox="0 0 1926 481"><defs><style>.cls-1{fill:#fff;}.cls-2{font-size:135px;font-family:MyriadPro-Regular, Myriad Pro;}</style></defs><path d="M485.5,731.5c-73.73,0-143-27.26-195.17-76.75S209.5,539.48,209.5,469.5s28.71-135.77,80.83-185.25S411.77,207.5,485.5,207.5s143,27.26,195.17,76.75S761.5,399.52,761.5,469.5s-28.71,135.77-80.83,185.25S559.23,731.5,485.5,731.5Z"/><path d="M485.5,208a286.47,286.47,0,0,1,107.25,20.56,275.77,275.77,0,0,1,87.58,56.05,260.41,260.41,0,0,1,59,83.12,250.13,250.13,0,0,1,0,203.54,260.41,260.41,0,0,1-59,83.12,275.77,275.77,0,0,1-87.58,56.05,290,290,0,0,1-214.5,0,275.77,275.77,0,0,1-87.58-56.05,260.41,260.41,0,0,1-59-83.12,250.13,250.13,0,0,1,0-203.54,260.41,260.41,0,0,1,59-83.12,275.77,275.77,0,0,1,87.58-56.05A286.47,286.47,0,0,1,485.5,208m0-1C332.79,207,209,324.53,209,469.5S332.79,732,485.5,732,762,614.47,762,469.5,638.21,207,485.5,207Z"/><rect x="450.5" y="142.5" width="72" height="72"/><path d="M522,143v71H451V143h71m1-1H450v73h73V142Z"/><rect x="232.5" y="222.5" width="72" height="72" transform="translate(-104.17 252.56) rotate(-43)"/><path d="M270.25,208.33l48.42,51.92-51.92,48.42-48.42-51.92,51.92-48.42m.05-1.42L216.91,256.7l49.79,53.39,53.39-49.79L270.3,206.91Z"/><rect x="134.5" y="411.5" width="82" height="72"/><path d="M216,412v71H135V412h81m1-1H134v73h83V411Z"/><rect x="671.5" y="232.5" width="83" height="83" transform="translate(-13.54 509.77) rotate(-39)"/><path d="M719.06,216.33l51.61,63.73-63.73,51.61-51.61-63.73,63.73-51.61m.15-1.4-65.28,52.86,52.86,65.28,65.28-52.86-52.86-65.28Z"/><rect x="747.5" y="411.5" width="86" height="72"/><path d="M833,412v71H748V412h85m1-1H747v73h87V411Z"/><ellipse class="cls-1" cx="482.5" cy="470" rx="188" ry="181.5"/><path d="M482.5,289a192.08,192.08,0,0,1,73,14.23,187.22,187.22,0,0,1,59.6,38.8,180.11,180.11,0,0,1,40.18,57.53,175.79,175.79,0,0,1,0,140.88A180.11,180.11,0,0,1,615.09,598a187.22,187.22,0,0,1-59.6,38.8,194.31,194.31,0,0,1-146,0A187.38,187.38,0,0,1,349.9,598a180.24,180.24,0,0,1-40.17-57.53,175.79,175.79,0,0,1,0-140.88A180.24,180.24,0,0,1,349.9,342a187.38,187.38,0,0,1,59.61-38.8,192.08,192.08,0,0,1,73-14.23m0-1C378.39,288,294,369.48,294,470s84.39,182,188.5,182S671,570.52,671,470,586.61,288,482.5,288Z"/><ellipse cx="966" cy="273.5" rx="157.5" ry="150"/><path d="M966,124c42,0,81.38,15.56,111,43.8s46,65.78,46,105.7-16.32,77.46-46,105.7S1008,423,966,423s-81.38-15.56-111-43.8-46-65.78-46-105.7S825.32,196,855,167.8,924.05,124,966,124m0-1c-87.26,0-158,67.38-158,150.5S878.74,424,966,424s158-67.38,158-150.5S1053.26,123,966,123Z"/><rect x="996.5" y="96.5" width="37" height="37" transform="translate(641.2 1065.64) rotate(-75)"/><path d="M1002.27,93l34.78,9.32-9.32,34.78L993,127.73,1002.27,93m-.71-1.22-9.83,36.71,36.71,9.83,9.83-36.71-36.71-9.83Z"/><rect x="1097.5" y="169.5" width="37" height="37" transform="translate(85.67 656.2) rotate(-34)"/><path d="M1120.86,163,1141,192.86,1111.14,213,1091,183.14,1120.86,163m.27-1.39-31.51,21.25,21.25,31.51,31.51-21.25-21.25-31.51Z"/><rect x="1043.5" y="396.5" width="37" height="37" transform="translate(-45.97 684.19) rotate(-35)"/><path d="M1066.42,389.93l20.65,29.49-29.49,20.65-20.65-29.49,29.49-20.65m.25-1.39-31.13,21.79,21.79,31.13,31.13-21.79-21.79-31.13Z"/><rect x="913.5" y="418.5" width="37" height="37" transform="translate(339.79 1278.95) rotate(-80)"/><path d="M917.4,416.15l35.45,6.25-6.25,35.45-35.45-6.25,6.25-35.45m-.81-1.16L910,452.41l37.42,6.6,6.6-37.42L916.59,415Z"/><rect x="803.5" y="351.5" width="37" height="37" transform="translate(-36.44 645.07) rotate(-42)"/><path d="M823.33,344.58l24.09,26.75-26.75,24.09-24.09-26.75,26.75-24.09m.08-1.41-28.24,25.42,25.42,28.24,28.24-25.42-25.42-28.24Z"/><rect x="778.5" y="212.5" width="37" height="37" transform="translate(284.26 883.43) rotate(-68)"/><path d="M787.05,207.57l33.38,13.48L807,254.43,773.57,241l13.48-33.38m-.55-1.3L772.27,241.5l35.23,14.23,14.23-35.23L786.5,206.27Z"/><rect x="853.5" y="111.5" width="37" height="37" transform="translate(63.61 481.85) rotate(-32)"/><path d="M877.73,105.2l19.07,30.53L866.27,154.8,847.2,124.27l30.53-19.07m.31-1.38L845.82,124,866,156.18,898.18,136,878,103.82Z"/><rect x="1105.5" y="315.5" width="37" height="37" transform="translate(459.02 1299.78) rotate(-72)"/><path d="M1112.44,311.32l34.24,11.12-11.12,34.24-34.24-11.12,11.12-34.24m-.64-1.26-11.74,36.14,36.14,11.74,11.74-36.14-36.14-11.74Z"/><circle class="cls-1" cx="965" cy="277" r="112.5"/><path d="M965,165a112,112,0,1,1-79.2,32.8A111.29,111.29,0,0,1,965,165m0-1a113,113,0,1,0,113,113A113,113,0,0,0,965,164Z"/><text class="cls-2" transform="translate(361.74 481.46)">HSP</text></svg>